<?xml version="1.0" encoding="utf-8"?>
<!-- Generator: Adobe Illustrator 23.1.1, SVG Export Plug-In . SVG Version: 6.00 Build 0)  -->
<svg xmlns="http://www.w3.org/2000/svg" xmlns:xlink="http://www.w3.org/1999/xlink" version="1.1" id="icons" x="0px" y="0px" viewBox="0 0 48 47.4" style="enable-background:new 0 0 48 47.4;" xml:space="preserve">
<style type="text/css">
	.st0{fill:#0D69B2;}
	.st1{fill:#61A73F;}
</style>
<g>
	<g>
		<polygon class="st0" points="20.5,10.7 14.5,10.7 14.5,8.7 18.5,8.7 18.5,4.7 20.5,4.7   "/>
	</g>
	<g>
		<polygon class="st0" points="44.5,45.7 11.5,45.7 11.5,42.7 13.5,42.7 13.5,43.7 42.5,43.7 42.5,3.7 17.9,3.7 13.5,8.1 13.5,19.7     11.5,19.7 11.5,7.3 17.1,1.7 44.5,1.7   "/>
	</g>
	<g>
		<rect x="19.5" y="14.7" class="st0" width="17" height="2"/>
	</g>
	<g>
		<rect x="19.5" y="18.7" class="st0" width="19" height="2"/>
	</g>
	<g>
		<rect x="21.5" y="22.7" class="st0" width="10" height="2"/>
	</g>
	<g>
		<rect x="24.5" y="26.7" class="st0" width="7" height="2"/>
	</g>
	<g>
		<g>
			<path class="st1" d="M13.5,41.7c-5.5,0-10-4.5-10-10s4.5-10,10-10s10,4.5,10,10S19,41.7,13.5,41.7z M13.5,23.7c-4.4,0-8,3.6-8,8     s3.6,8,8,8s8-3.6,8-8S17.9,23.7,13.5,23.7z"/>
		</g>
		<g>
			<polygon class="st1" points="12.2,36.1 8.1,32 9.5,30.6 12.2,33.3 17.5,28 18.9,29.4    "/>
		</g>
	</g>
</g>
</svg>
